<svg xmlns="http://www.w3.org/2000/svg" width="4.82in" height="2.12in" viewBox="0 0 346.84 152.48"><title>title</title><path d="M40.5,221.5c49.2-102.57,41.71-121.34,36-126-1.52-1.24-9.7-7-12-5-1.89,1.64-.35,9,4,12,8.36,5.85,19.93-9.16,39-9,12.67.1,28,6.89,34,19,8.77,17.72-5.15,41.42-20,53-22.24,17.35-53.17,12.7-54,9-.36-1.6,4.72-3.94,7-5,11.33-5.24,30.12-6.2,42,6,1.62,1.66,9.71,10,9,21-1,15.19-17.92,23.66-16,27,1.38,2.39,11.44-1,26-6s18.76-7.37,22-5c4.55,3.33,3.29,13.2,1,19-1.88,4.76-6,10.72-8,10s-.71-7.25,4-36c4.16-25.36,4.67-29.25,9-33,9.06-7.86,27.27-8.6,35,1,8.38,10.41,1.8,29.66-11,38-13.21,8.61-32.52,5.23-39-5-8.8-13.89,5.75-40.86,22-45,10.78-2.75,23.75,4.2,47,5,5.38.19,7.75-.08,8-1,.42-1.58-5.21-6-9-5-10.1,2.71-14.28,46.06,1,54,.91.47,3.72,1.77,9,1,19.73-2.89,35.46-29.15,40-52,5.39-27.15-3.37-57.75-11-58-8.2-.27-20.62,34.36-14,66,2.27,10.83,7,33.41,26,41,16.71,6.67,39.42-.23,47-15,4.77-9.29,4.55-23.63-2-27-5.74-3-16.51,2.44-20,11-4.07,10,3.72,19.49,5,21,8.16,9.57,21.27,9.27,25,9,20.51-1.49,33-22.11,36-27,19.28-31.75,10.68-76.85,2-78-9.49-1.26-34.08,48.06-17,80,4.85,9.07,17.66,25.35,31,23,5.41-1,9.39-4.7,12-8" transform="translate(-40.05 -89.58)" style="fill:#fff;stroke:#000;stroke-miterlimit:10"/><path d="M218.5,130.5c-4.71-.17-9.13,5-8,10,.94,4.15,5.61,7.38,10,6,4.18-1.31,6-6.15,5-10C224.65,133.38,221.81,130.62,218.5,130.5Z" transform="translate(-40.05 -89.58)" style="fill:#fff;stroke:#000;stroke-miterlimit:10"/></svg>