<?xml version="1.0" encoding="utf-8"?>
<!-- Generator: Adobe Illustrator 21.1.0, SVG Export Plug-In . SVG Version: 6.00 Build 0)  -->
<svg version="1.1" id="Capa_1" xmlns="http://www.w3.org/2000/svg" xmlns:xlink="http://www.w3.org/1999/xlink" x="0px" y="0px"
	 viewBox="0 0 335.1 261.6" style="enable-background:new 0 0 335.1 261.6;" xml:space="preserve">
<style type="text/css">
	.st0{fill:#FFFFFF;}
</style>
<g>
	<g>
		<path class="st0" d="M311.2,79c-1.4-10.2-1.5-27.7,7.9-33.6c0.2-0.1,0.3-0.3,0.4-0.4c7.7-2.5,13.1-5.9,8.9-10.6L214.3,0L29.6,25.7
			c0,0-21.2,3-19.3,35.9c1,17.9,6.6,26.7,11.5,31L6.7,97.2c-4.2,4.7,1.1,8.1,8.9,10.6c0.1,0.1,0.3,0.3,0.4,0.4
			c9.5,5.9,9.3,23.4,7.9,33.6c-34,9.6-21.8,12.8-21.8,12.8l7.5,1.8c-5.2,4.7-10.4,13.7-9.5,30.8C2,220,19.4,222.3,19.4,222.3
			l120.9,39.3l182.5-44.2c0,0,12.2-3.1-21.8-12.8c-1.4-10.2-1.6-27.7,7.9-33.6c0.2-0.1,0.3-0.3,0.4-0.4c7.7-2.5,13.1-5.9,8.9-10.6
			l-7.9-2.4c5.3-3.2,13.2-11.5,14.5-33.2c0.9-14.9-3-23.6-7.5-28.8l15.7-3.8C332.9,91.8,345.1,88.7,311.2,79z M158.5,78.6l30.7-6.3
			L292.9,51l15.5-3.2c-4.9,9-4.7,21.4-3.9,29.4c0.2,1.8,0.4,3.4,0.6,4.7L288.1,86l-130.9,32.6L158.5,78.6z M26.7,110.6l15.4,3.2
			l99.6,20.5l8.7,1.8l0,0l0,0l26.1,5.4l1.3,40L43.3,147.9L30,144.6c0.2-1.2,0.4-2.9,0.6-4.7C31.4,132,31.7,119.6,26.7,110.6z
			 M20.7,60c-0.2-8.7,1.4-15.1,4.5-18.3c2-2.1,4.4-2.5,6-2.5c0.9,0,1.5,0.1,1.5,0.1l79.6,26l39.7,12.9l-1.3,40.3L39.3,87.3l-5.9-1.6
			c-0.2-0.1-0.5-0.1-0.7-0.1C32.3,85.5,21.2,84.5,20.7,60z M140.6,244.1L23.3,211.2c-0.2-0.1-0.5-0.1-0.7-0.1c-0.5,0-11.5-1-12-25.5
			c-0.2-8.8,1.4-15.1,4.5-18.3c2-2.1,4.4-2.5,6-2.5c0.9,0,1.5,0.1,1.5,0.1c0,0,0,0,0,0l119.3,38.9L140.6,244.1z M294.3,202.7
			c0.2,1.8,0.4,3.4,0.6,4.7l-147.8,36.8l1.3-40l31.6-6.5l4.7,1.1l17.5-5.7l80.6-16.6l15.5-3.2C293.3,182.4,293.5,194.8,294.3,202.7z
			 M302.4,148.3c-0.3,0-0.5,0-0.8,0.1l-11.1,3.1l-106.1,29.8L183,141l34.8-11.4l84.3-27.5c0,0,4.4-1,7.7,2.3
			c3.1,3.2,4.7,9.5,4.5,18.3C313.8,147.3,302.8,148.3,302.4,148.3z"/>
	</g>
</g>
</svg>
