<?xml version="1.0" encoding="utf-8"?>
<!-- Generator: Adobe Illustrator 21.1.0, SVG Export Plug-In . SVG Version: 6.00 Build 0)  -->
<svg version="1.1" id="Layer_1" xmlns="http://www.w3.org/2000/svg" xmlns:xlink="http://www.w3.org/1999/xlink" x="0px" y="0px"
	 viewBox="0 0 700 400" style="enable-background:new 0 0 700 400;" xml:space="preserve">
<style type="text/css">
	.st0{fill:none;stroke:#FF0000;stroke-width:2.1649;stroke-miterlimit:10;}
	.st1{fill:none;stroke:#FF0000;stroke-width:2.1216;stroke-miterlimit:10;}
	.st2{fill:none;stroke:#FF0000;stroke-width:2.0791;stroke-miterlimit:10;}
	.st3{fill:none;stroke:#FF0000;stroke-width:2.0376;stroke-miterlimit:10;}
	.st4{fill:none;stroke:#FF0000;stroke-width:1.9968;stroke-miterlimit:10;}
</style>
<polyline class="st0" points="700,5.5 44.5,5.5 4.2,45.8 4.2,352.5 47.9,396.1 700,396.1 "/>
<polyline class="st1" points="700,9.4 50.7,9.4 11.2,48.9 11.2,349.5 54,392.2 700,392.2 "/>
<polyline class="st2" points="700,13.2 56.7,13.2 18,51.9 18,346.5 59.9,388.4 700,388.4 "/>
<polyline class="st3" points="700,17 62.6,17 24.7,54.9 24.7,343.6 65.8,384.6 700,384.6 "/>
<polyline class="st4" points="700,20.7 68.4,20.7 31.3,57.8 31.3,340.7 71.5,381 700,381 "/>
</svg>
