<?xml version="1.0" encoding="utf-8"?>
<!-- Generator: Adobe Illustrator 21.1.0, SVG Export Plug-In . SVG Version: 6.00 Build 0)  -->
<svg version="1.1" id="Layer_1" xmlns="http://www.w3.org/2000/svg" xmlns:xlink="http://www.w3.org/1999/xlink" x="0px" y="0px"
	 width="85.6px" height="64.8px" viewBox="0 0 85.6 64.8" style="enable-background:new 0 0 85.6 64.8;" xml:space="preserve">
<style type="text/css">
	.st0{fill:#FF0000;}
</style>
<g>
	<path d="M19.1,25.5h-4.7l-0.3-2.9c0,0-1.5,3.3-5.5,3.3c-3.1,0-5.8-1.6-5.8-6.7c0-7.6,3.8-13.1,9.6-13.1c3,0,4.4,1.6,4.4,1.6
		l1.3-1.3h4.3L19.1,25.5z M13.1,10.4c-2.6,0-4.2,4.5-4.2,8.2c0,2.3,0.5,3.1,1.7,3.1c2.1,0,3.9-4.6,3.9-4.6l1-5.9
		C15.5,11.1,14.7,10.4,13.1,10.4z"/>
	<path d="M41,25.5h-4.5L36,22.3c0,0-2.1,3.5-6.2,3.5c-3.6,0-5.6-1.9-4.8-6.5l2.3-13h6.1l-2.2,12.3c-0.2,1.1-0.3,2.3,0.9,2.3
		c2.7,0,4.4-4.7,4.4-4.7l1.8-10h6.1L41,25.5z"/>
	<path d="M59.1,10.2h-3.6l-1.6,9.3c-0.2,1.2-0.1,1.8,0.9,1.8c0.9,0,3.4-0.6,3.4-0.6l-0.8,4.3c0,0-2.3,0.8-4.8,0.8
		c-4,0-5.5-2.1-4.9-6l1.7-9.6h-3.1l0.7-3.8h3.1l1.3-4.2l5.8-1.5l-1,5.8h4.1L59.1,10.2z"/>
	<path d="M75.2,23.3c-1.7,1.7-4,2.6-7.5,2.6c-3.7,0-7.8-1.6-7.8-7.5c0-4.6,2-8,3.5-9.5c1.6-1.6,3.9-2.8,7.6-2.8
		c3.8,0,7.9,1.5,7.9,7.5C78.7,17.8,77.1,21.3,75.2,23.3z M70.4,10.1c-3.2,0-4.5,5.4-4.5,8.2c0,2.7,0.7,3.5,2.2,3.5
		c3.4,0,4.6-5.7,4.6-8.5C72.7,10.8,71.9,10.1,70.4,10.1z"/>
	<path class="st0" d="M18.1,55.1c-1.3,1.1-3.2,1.8-5.6,1.8c-2.1,0-3.9-0.6-3.9-0.6l-1.3,7.1H1.3l4.6-25.9h4.3l0.6,3.3
		c0,0,1.8-3.6,6-3.6c2.9,0,5.3,1.5,5.3,6.7C22.2,49.2,20.2,53.3,18.1,55.1z M14.8,41.3c-2.1,0-4.2,4.5-4.2,4.5l-1.1,6.5
		c0,0,1.3,0.4,2,0.4c1.3,0,2.2-0.5,3-1.5c1-1.3,1.7-4.4,1.7-7.2C16.1,41.9,15.7,41.3,14.8,41.3z"/>
	<path class="st0" d="M30.2,56.5h-6.1l3.3-19.1h6.1L30.2,56.5z M31.2,35.2c-1.9,0-3.3-1.5-3.3-3.4c0-1.8,1.4-3.4,3.3-3.4
		s3.3,1.6,3.3,3.4C34.6,33.6,33.1,35.2,31.2,35.2z"/>
	<path d="M41.2,56.5h-6.1l4.6-25.9h6.1L41.2,56.5z"/>
	<path d="M61.4,54.3c-1.7,1.7-4,2.6-7.5,2.6c-3.7,0-7.8-1.6-7.8-7.5c0-4.6,2-8,3.5-9.5c1.6-1.6,3.9-2.8,7.6-2.8
		c3.8,0,7.9,1.5,7.9,7.5C65,48.8,63.4,52.3,61.4,54.3z M56.7,41.1c-3.2,0-4.5,5.4-4.5,8.2c0,2.7,0.7,3.5,2.2,3.5
		c3.4,0,4.6-5.7,4.6-8.5C59,41.8,58.2,41.1,56.7,41.1z"/>
	<path d="M79.5,41.2h-3.6l-1.6,9.3c-0.2,1.2-0.1,1.8,0.9,1.8c0.9,0,3.4-0.6,3.4-0.6l-0.8,4.3c0,0-2.3,0.8-4.8,0.8
		c-4,0-5.5-2.1-4.9-6l1.7-9.6h-3.1l0.7-3.8h3.1l1.3-4.2l5.8-1.5l-1,5.8h4.1L79.5,41.2z"/>
</g>
</svg>
